<svg width="12" height="12" viewBox="0 0 12 12" xmlns="http://www.w3.org/2000/svg"><path d="M6 2.5c1.458 0 2.873.627 4.199 1.662.456.356.87.737 1.234 1.119.22.23.377.412.463.521a.48.48 0 01-.003.6l-.172.205a11.028 11.028 0 01-1.7 1.567C8.743 9.13 7.389 9.7 6 9.7c-1.458 0-2.873-.627-4.199-1.662A11.42 11.42 0 01.567 6.919a8.083 8.083 0 01-.463-.521.48.48 0 010-.596 5.51 5.51 0 01.18-.215l.283-.306c.364-.382.778-.763 1.234-1.12C3.127 3.128 4.541 2.5 6 2.5zm0 .96c-1.21 0-2.436.543-3.608 1.458-.417.326-.797.676-1.131 1.026l-.146.156.146.156c.334.35.714.7 1.131 1.026C3.564 8.197 4.79 8.74 6 8.74c1.15 0 2.32-.493 3.446-1.335.566-.423 1.042-.87 1.4-1.26l.04-.044-.147-.157c-.334-.35-.714-.7-1.131-1.026C8.436 4.003 7.21 3.46 6 3.46zm0 .24a2.4 2.4 0 110 4.8 2.4 2.4 0 010-4.8zm0 .96a1.44 1.44 0 100 2.88 1.44 1.44 0 000-2.88z" fill-rule="evenodd"/></svg>