<svg xmlns="http://www.w3.org/2000/svg" width="10" height="13"><path fill="#A3A3A3" d="M5.6 5.6c.5 0 1.1 0 1.1.6 0 .5-.6.5-1 .5h-2c.1.3.1.8.1 1.1 0 1.5-.6 2.3-.9 2.8.2 0 .8-.1 1.4-.1.7 0 1.1.1 2.2.3.2 0 .6.1 1.1.1.3 0 .4 0 1.2-.3.2 0 .3-.1.5-.1.4 0 .7.3.7.7 0 .8-1.4 1.1-2.5 1.1-.4 0-.9 0-2.2-.4-1.3-.3-1.7-.4-2.1-.4-.5 0-.9.1-1.4.3-.7.3-.8.3-1 .3-.3 0-.7-.2-.7-.7 0-.3.1-.3.7-.9 1.3-1.2 1.4-2.1 1.4-2.7 0-.5-.1-.9-.2-1.2H1c-.4 0-1 0-1-.5 0-.6.6-.6.9-.6h.8c-.4-1.1-.5-1.5-.5-2.1C1.2 1.5 2.8 0 5.3 0c2.8 0 4 1.8 4 2.9 0 .4-.4.7-.8.7-.6 0-.7-.4-.8-.7-.3-.8-.9-1.8-2.4-1.8S2.8 2 2.8 3.3c.1.7.2 1.1.6 2.3h2.2z"/></svg>